#!OML:ASF I:\Actors\actors\Patient Classification 1\Patient 1\Session 1\Subject1.ASF
:FULLY-SPECIFIED
:DEGREES
258
root 0.00122625 17.5715 8.06586 7.80666 -0.392635 -8.59559
lowerback -1.39772 1.44809 5.75783
upperback -3.97037 2.02831 2.16029
thorax -3.19907 0.875118 -1.0183
lowerneck -0.858561 -3.56184 0.444372
upperneck 20.0298 -6.01061 5.99768
head 6.38908 -2.44604 1.49145
rclavicle 1.79496e-014 1.17283e-014
rhumerus 1.58787 44.3384 -93.6631
rradius 130.254
rwrist 15.7966
rhand -21.5147 -61.8225
rfingers 7.12502
rthumb 4.87741 91.7464
lclavicle 1.79496e-014 1.17283e-014
lhumerus -8.41347 -43.5752 103.01
lradius 127.074
lwrist -8.46278
lhand -46.1571 -32.1246
lfingers 7.12502
lthumb -18.8968 -3.0225
rfemur -6.29471 20.1123 24.7525
rtibia 7.47718
rfoot -13.2645 -21.7208
rtoes 2.03976
lfemur 2.13438 -39.427 -9.62438
ltibia -2.863
lfoot -18.5109 48.7911
ltoes 8.97894
259
root 0.000366615 17.5705 8.0645 7.80745 -0.369201 -8.6409
lowerback -1.88892 1.45871 5.63049
upperback -3.61541 1.98591 2.25093
thorax -2.56179 0.87964 -0.836771
lowerneck -1.44846 -3.41337 0.375404
upperneck 19.9986 -5.82357 6.04439
head 6.47847 -2.34552 1.51721
rclavicle -8.77681e-015 -4.45278e-014
rhumerus 2.35778 45.4072 -93.3437
rradius 130.579
rwrist 14.4523
rhand -20.5385 -61.7026
rfingers 7.12502
rthumb 5.81994 91.6027
lclavicle -8.77681e-015 -4.45278e-014
lhumerus -8.25965 -44.21 103.357
lradius 126.76
lwrist -4.98561
lhand -46.7276 -33.3593
lfingers 7.12502
lthumb -19.4454 -4.31167
rfemur -6.31271 20.0823 24.8055
rtibia 7.49126
rfoot -13.2181 -21.7329
rtoes 1.69186
lfemur 2.08262 -39.3636 -9.52181
ltibia -2.85676
lfoot -18.4302 48.7156
ltoes 9.01934
260
root -0.00142893 17.5707 8.06359 7.80319 -0.309676 -8.67627
lowerback -1.34214 1.53761 5.80897
upperback -3.98566 2.15288 2.13208
thorax -3.23651 0.934158 -1.07862
lowerneck -1.38279 -3.36165 0.516345
upperneck 20.2352 -5.77114 6.01622
head 6.53721 -2.30583 1.48927
rclavicle 2.04407e-014 4.96962e-015
rhumerus 1.3919 46.0287 -94.303
rradius 131.005
rwrist 12.8772
rhand -19.248 -61.8004
rfingers 7.12502
rthumb 7.0658 91.6624
lclavicle 2.04407e-014 4.96962e-015
lhumerus -9.65046 -44.8917 104.594
lradius 126.797
lwrist -0.784495
lhand -47.0206 -32.3409
lfingers 7.12502
lthumb -19.7271 -3.32193
rfemur -6.32567 20.054 24.8536
rtibia 7.5229
rfoot -13.2469 -21.7551
rtoes 1.68989
lfemur 2.03617 -39.2985 -9.43295
ltibia -2.86225
lfoot -18.2202 48.6597
ltoes 8.67695
261
root -0.00314864 17.5707 8.06282 7.7978 -0.225711 -8.66283
lowerback -1.11646 1.60007 5.8545
upperback -4.11569 2.26043 2.06803
thorax -3.48933 0.97687 -1.17946
lowerneck -1.51194 -3.32816 0.57422
upperneck 20.3397 -5.73054 5.97029
head 6.58942 -2.279 1.46495
rclavicle 2.14594e-014 1.47101e-014
rhumerus 0.976668 46.4906 -94.7729
rradius 131.203
rwrist 11.8032
rhand -22.8349 -64.294
rfingers 7.12502
rthumb 3.60249 94.2433
lclavicle 2.14594e-014 1.47101e-014
lhumerus -10.4578 -45.3626 105.511
lradius 127.21
lwrist 3.04199
lhand -46.7099 -26.2088
lfingers 7.12502
lthumb -19.4284 2.84055
rfemur -6.33641 19.9435 24.8407
rtibia 7.55395
rfoot -13.2813 -21.6925
rtoes 1.82945
lfemur 1.99918 -39.2993 -9.42433
ltibia -2.85496
lfoot -18.0295 48.6404
ltoes 8.27719
262
root -0.00630176 17.5701 8.06194 7.79431 -0.135594 -8.6325
lowerback -1.08615 1.67389 5.83572
upperback -4.10119 2.3587 2.0015
thorax -3.48291 1.02576 -1.23972
lowerneck -1.71785 -3.33839 0.540719
upperneck 20.3306 -5.75907 6.04041
head 6.6263 -2.28528 1.48721
rclavicle -1.77043e-016 -2.98177e-015
rhumerus 0.939586 46.0048 -95.0007
rradius 131.373
rwrist 12.9166
rhand -22.692 -64.8671
rfingers 7.12502
rthumb 3.7405 94.814
lclavicle -1.77043e-016 -2.98177e-015
lhumerus -10.747 -45.1612 106.11
lradius 128.637
lwrist 9.06664
lhand -43.6031 -16.1649
lfingers 7.12502
lthumb -16.4391 13.1586
rfemur -6.35313 19.8156 24.8095
rtibia 7.5836
rfoot -13.3164 -21.6297
rtoes 1.88542
lfemur 1.98623 -39.4081 -9.44976
ltibia -2.85678
lfoot -17.8912 48.6901
ltoes 8.00931
263
root -0.0107104 17.5693 8.05973 7.76257 -0.0323536 -8.66547
lowerback -1.05533 1.72473 5.86395
upperback -4.05969 2.42525 1.93254
thorax -3.44881 1.0584 -1.32772
lowerneck -1.84689 -3.36231 0.538426
upperneck 20.2841 -5.81325 6.15751
head 6.63935 -2.30092 1.51915
rclavicle 1.77788e-014 -1.72943e-014
rhumerus -0.0674762 45.1896 -96.0626
rradius 131.677
rwrist 13.9648
rhand -22.3555 -63.9879
rfingers 7.12502
rthumb 4.0655 93.9288
lclavicle 1.77788e-014 -1.72943e-014
lhumerus -10.4962 -43.3077 106.141
lradius 130.664
lwrist 20.6821
lhand -35.3954 -8.45346
lfingers 7.12502
lthumb -8.52638 21.3544
rfemur -6.34697 19.7331 24.8726
rtibia 7.63342
rfoot -13.3699 -21.6521
rtoes 1.92008
lfemur 1.98346 -39.4902 -9.39487
ltibia -2.85286
lfoot -17.8956 48.6752
ltoes 8.11574
264
root -0.014789 17.5689 8.05681 7.72796 0.09872 -8.74335
lowerback -0.993655 1.70784 5.9286
upperback -4.04457 2.40752 1.92604
thorax -3.46667 1.04714 -1.37183
lowerneck -1.916 -3.3494 0.450418
upperneck 20.2885 -5.80224 6.22286
head 6.65653 -2.29539 1.55418
rclavicle 1.70054e-014 -5.1684e-015
rhumerus -1.70897 44.4677 -97.7318
rradius 132.056
rwrist 14.372
rhand -22.4397 -62.2374
rfingers 7.12502
rthumb 3.98418 92.1798
lclavicle 1.70054e-014 -5.1684e-015
lhumerus -10.2542 -41.362 105.912
lradius 132.122
lwrist 32.7381
lhand -28.1876 -2.97787
lfingers 7.12502
lthumb -1.56707 26.9961
rfemur -6.34282 19.6108 24.9902
rtibia 7.68854
rfoot -13.4136 -21.6648
rtoes 1.95244
lfemur 1.94244 -39.5604 -9.27275
ltibia -2.80806
lfoot -17.9861 48.611
ltoes 8.36845
265
root -0.0184644 17.5697 8.05399 7.7288 0.237068 -8.74744
lowerback -0.92703 1.71598 5.91146
upperback -4.10832 2.42632 1.89622
thorax -3.56899 1.05288 -1.3965
lowerneck -1.79762 -3.36004 0.359986
upperneck 20.2724 -5.8114 6.26499
head 6.63424 -2.30588 1.58456
rclavicle -1.80459e-015 7.95139e-015
rhumerus -1.78469 44.9416 -97.6113
rradius 132.031
rwrist 14.242
rhand -23.9366 -61.9554
rfingers 7.12502
rthumb 2.53861 91.9201
lclavicle -1.80459e-015 7.95139e-015
lhumerus -9.92727 -39.5742 105.302
lradius 133.059
lwrist 45.2308
lhand -22.3401 0.268579
lfingers 7.12502
lthumb 4.08037 30.2093
rfemur -6.37785 19.4257 25.0024
rtibia 7.72666
rfoot -13.4424 -21.6281
rtoes 2.01062
lfemur 1.85796 -39.7097 -9.22753
ltibia -2.74956
lfoot -17.9874 48.6376
ltoes 8.3603
266
root -0.0186865 17.5675 8.04941 7.61346 0.444641 -8.99344
lowerback -0.699255 1.77386 6.21278
upperback -4.18737 2.53067 1.88079
thorax -3.76297 1.0879 -1.59003
lowerneck -1.59969 -3.43516 0.305499
upperneck 20.2539 -5.91956 6.36237
head 6.60172 -2.35872 1.62191
rclavicle 3.66074e-014 2.82274e-014
rhumerus -1.06699 45.939 -96.6136
rradius 131.588
rwrist 15.2232
rhand -25.6642 -62.7732
rfingers 7.12502
rthumb 0.870079 92.7511
lclavicle 3.66074e-014 2.82274e-014
lhumerus -9.83773 -39.968 104.724
lradius 133.167
lwrist 49.1212
lhand -20.4781 -4.29591
lfingers 7.12502
lthumb 5.87824 25.6025
rfemur -6.23884 19.1346 25.3511
rtibia 7.72252
rfoot -13.4522 -21.539
rtoes 2.0099
lfemur 1.90828 -39.6287 -8.95954
ltibia -2.76874
lfoot -17.6189 48.4554
ltoes 7.89362
267
root -0.0170761 17.5623 8.04097 7.36783 0.759099 -9.62124
lowerback -0.350368 1.83702 6.96989
upperback -4.2175 2.663 1.93415
thorax -3.9593 1.12203 -1.96947
lowerneck -1.51135 -3.53892 0.358524
upperneck 20.3189 -6.07726 6.41992
head 6.61344 -2.42552 1.6233
rclavicle -1.03617e-014 -5.56597e-015
rhumerus -2.19118 46.0091 -97.4102
rradius 131.082
rwrist 18.1083
rhand -25.9871 -62.0804
rfingers 7.12502
rthumb 0.558239 92.0595
lclavicle -1.03617e-014 -5.56597e-015
lhumerus -10.0289 -43.09 104.567
lradius 132.738
lwrist 40.8904
lhand -23.5575 -9.93651
lfingers 7.12502
lthumb 2.90472 20.0235
rfemur -5.93653 18.8019 26.2038
rtibia 7.70142
rfoot -13.4788 -21.4663
rtoes 1.98119
lfemur 1.98934 -39.1227 -8.20978
ltibia -2.81807
lfoot -16.7288 47.8557
ltoes 6.70403
